inDegrees=no
num_controls=7
num_derivatives=13
num_iterations=80
num_multipliers=7
num_parameters=0
num_slacks=7
num_states=26
objective=0.453644
objective_accelerations=0.003704
objective_balance=0.002135
objective_effort=0.003888
objective_height=0.419918
objective_ligament=0.023998
solver_duration=1113.603911
status=Solve_Succeeded
success=true
DataType=double
version=3
OpenSimVersion=4.5
endheader
time	/jointset/ground_pelvis/pelvis_tilt/value	/jointset/ground_pelvis/pelvis_tx/value	/jointset/ground_pelvis/pelvis_ty/value	/jointset/hip_l/hip_flexion_l/value	/jointset/hip_l/hip_adduction_l/value	/jointset/hip_l/hip_rotation_l/value	/jointset/back/lumbar_extension/value	/jointset/patellofemoral_l/patellar_flexion_l/value	/jointset/knee_l/knee_flexion_l/value	/jointset/knee_l/knee_adduction_l/value	/jointset/knee_l/knee_rotation_l/value	/jointset/ankle_l/ankle_angle_l/value	/jointset/subtalar_l/subtalar_angle_l/value	/jointset/ground_pelvis/pelvis_tilt/speed	/jointset/ground_pelvis/pelvis_tx/speed	/jointset/ground_pelvis/pelvis_ty/speed	/jointset/hip_l/hip_flexion_l/speed	/jointset/hip_l/hip_adduction_l/speed	/jointset/hip_l/hip_rotation_l/speed	/jointset/back/lumbar_extension/speed	/jointset/patellofemoral_l/patellar_flexion_l/speed	/jointset/knee_l/knee_flexion_l/speed	/jointset/knee_l/knee_adduction_l/speed	/jointset/knee_l/knee_rotation_l/speed	/jointset/ankle_l/ankle_angle_l/speed	/jointset/subtalar_l/subtalar_angle_l/speed	/forceset/tau_hip_flexion_l	/forceset/tau_hip_adduction_l	/forceset/tau_hip_rotation_l	/forceset/tau_knee_flexion_l	/forceset/tau_ankle_angle_l	/forceset/tau_subtalar_angle_l	/forceset/tau_lumbar_extension	lambda_cid13_p0	lambda_cid13_p1	lambda_cid13_p2	lambda_cid13_p3	lambda_cid13_p4	lambda_cid13_p5	lambda_cid14_p0	/jointset/ground_pelvis/pelvis_tilt/accel	/jointset/ground_pelvis/pelvis_tx/accel	/jointset/ground_pelvis/pelvis_ty/accel	/jointset/hip_l/hip_flexion_l/accel	/jointset/hip_l/hip_adduction_l/accel	/jointset/hip_l/hip_rotation_l/accel	/jointset/back/lumbar_extension/accel	/jointset/patellofemoral_l/patellar_flexion_l/accel	/jointset/knee_l/knee_flexion_l/accel	/jointset/knee_l/knee_adduction_l/accel	/jointset/knee_l/knee_rotation_l/accel	/jointset/ankle_l/ankle_angle_l/accel	/jointset/subtalar_l/subtalar_angle_l/accel	gamma_cid13_p0	gamma_cid13_p1	gamma_cid13_p2	gamma_cid13_p3	gamma_cid13_p4	gamma_cid13_p5	gamma_cid14_p0
1.5	-0.08300363497821486	0.1491449001733748	0.9074429369348396	0.1581403082786708	-0.2434920189412113	-0.3268452178666261	-0.07663491156368402	0.05009281722169617	0.05009281722182933	0.04021376226938173	-0.1574351774390069	0.08314335492644298	0.2179084037119584	-0.09087877621234405	0.01175211728455778	-0.002559151665057695	0.02372774672698966	0.02898184499894117	-0.02277932337235435	0.1305988028372013	-0.1196660466694335	-0.1196660466694758	0.01744179284717725	0.01263323747330372	-0.04781871938849502	0.01318647459264596	0.02153891646965098	0.06590809510645747	-0.006847535603593861	-0.04549686027962305	0.007178285054325561	-0.06577198527987627	0.01304651087090681	-29.84004208854924	28.1993882272101	1.608543427393571	3.606693555504069	-460.7989158077312	-21.16773572697322	-23.29004878564732	0.1663232497340108	-0.07402358965680628	0.005093998747634458	-0.01587031860281924	-0.03502142679833143	0.04633274780219752	-0.1091628564493823	0.1415009697076446	0.141500969707643	-0.02733801539903745	-0.01759554796961754	-0.01630920432941773	-0.04785852578245427	-4.615685556544138e-11	4.313772826601344e-10	1.373127311851392e-09	-2.552402086564216e-10	3.158288601911115e-09	-4.777257727487901e-10	-2.301375282909777e-10
1.51	-0.08390402465348733	0.149258717710772	0.9074176115742406	0.1583766651547117	-0.2432039410264642	-0.3270707337162482	-0.07533448517046867	0.04890315528158333	0.04890315528135368	0.04038680881219589	-0.1573097420308016	0.08266432075021769	0.2180378754508944	-0.08919412186736522	0.01101059590178862	-0.002505530142895262	0.02354284742215316	0.02863253033242892	-0.02232311179455142	0.129478970203467	-0.1182593375739595	-0.1182593375739913	0.01716770321350109	0.01245287913452746	-0.04798534947094363	0.01270771395963154	0.02148341489780962	0.06593762755097868	-0.006861951176218988	-0.04503867576371209	0.007078540227441701	-0.06582513546158179	0.01295590949314927	-29.87498850156583	28.20580496141595	1.633546663714322	3.618798565976089	-460.8006212942922	-21.15653385498155	-23.26035193452109	0.1702919130017135	-0.07433561118723728	0.00555542426938774	-0.01991699884892028	-0.03506793011094104	0.0453753335286366	-0.1145193064250493	0.141306503217163	0.1413065032192061	-0.02741605732868243	-0.01840050968955766	-0.01642497745476718	-0.04790894926691888	-4.707269465991586e-11	3.634853037432508e-10	1.457721101255215e-09	-2.638576634385013e-10	3.21389055336868e-09	-5.92248169640369e-10	-2.419473044422257e-10
1.52	-0.08478741670810885	0.1493650961946213	0.9073928342679322	0.1586111495850173	-0.2429193925470895	-0.3272916654559617	-0.07404548227155709	0.04772777055672234	0.04772777055686256	0.04055712013489642	-0.1571861391129195	0.08218370325973247	0.2181625547600582	-0.08747925207748045	0.01026430657499715	-0.002449540806948882	0.023353257620401	0.02827595792458089	-0.02186250138636329	0.1283141039861605	-0.116810603528485	-0.1168106035285064	0.01689474878076942	0.01226673948154169	-0.04813538224346441	0.01222798863838954	0.02142791332364837	0.06596715999550105	-0.006876366744436447	-0.04458049124858093	0.006978795400181158	-0.0658782856434959	0.01286530811372138	-29.9092973532313	28.21217329319182	1.658485392820339	3.631267574789994	-460.7921588580559	-21.14247431479949	-23.23083163024643	0.1723663387154585	-0.07497717846161558	0.00556756150444473	-0.0168084179855849	-0.03647297506534647	0.04721251387892255	-0.1181695731637752	0.149905959707905	0.14990595970791	-0.02711097520980977	-0.01875181081189625	-0.01298974234412992	-0.0480514634279058	-3.584572450794303e-11	2.963789293791929e-10	1.511819555469759e-09	-2.688997037964093e-10	3.275195851441036e-09	-6.51164658143012e-10	-2.491856584844287e-10
1.53	-0.08565351972046568	0.1494639985324789	0.9073686279998712	0.1588437087541585	-0.2426384422426871	-0.3275079696886618	-0.07276836224108846	0.04656707425873072	0.04656707425861398	0.04072471295021981	-0.1570644208166264	0.0817016773701207	0.2182824401004902	-0.08573747389092204	0.00951639910657873	-0.002391423902227524	0.02315776034907584	0.02791307559984276	-0.02139776066682977	0.127101531804363	-0.1153217246911021	-0.1153217246911107	0.01662441090465156	0.01207618965756184	-0.04826578854942069	0.01174964661778339	0.02142561993973189	0.06594997592511827	-0.006882476029226686	-0.04424397587645223	0.007039552166755219	-0.06593993339807508	0.01274241617903008	-29.8940313686405	28.22267067810529	1.672350029618231	3.607808295201816	-460.7940657742716	-21.1388567961472	-23.20150385218836	0.1756648812524024	-0.07466186948539021	0.005977766155896824	-0.02104285463241158	-0.03635024407531594	0.04619226793482573	-0.1240565854096486	0.1494186088183113	0.1494186088206859	-0.0269054662929017	-0.01931585078708937	-0.01246502803281823	-0.04764071319935341	-1.171701953162007e-11	2.301072598525121e-10	1.533516716045694e-09	-2.701428663286349e-10	3.342560955291609e-09	-6.509998689824115e-10	-2.515668765357716e-10
1.54	-0.08650208868645885	0.1495554289279613	0.9073450117031028	0.1590742884558013	-0.2423611516381287	-0.3277196090307952	-0.0715036190414335	0.04542147470137378	0.0454214747015103	0.04088962033239959	-0.1569446298753612	0.08121846762678457	0.2183975589923509	-0.08397244279931171	0.008769918099978685	-0.002331546548463277	0.02295736416074155	0.02754401795914994	-0.02092952326949854	0.1258387378337	-0.1137912553311228	-0.1137912553311186	0.01635766212936739	0.01188126852984017	-0.0483721529878161	0.0112746989243029	0.02142332655364854	0.06593279185500772	-0.006888585310657712	-0.04390746050511752	0.00710030893304765	-0.06600158115250412	0.01261952424267752	-29.87809762394476	28.23314381642381	1.686112676358118	3.584560777696566	-460.785273650097	-21.13214985674276	-23.17238670027236	0.1770169197260478	-0.07469188609822658	0.005919651313038982	-0.01778820138707867	-0.03770803825613665	0.04791184943821101	-0.1282139309368264	0.1582240642273111	0.158224064227319	-0.0263931550427396	-0.01962607156055611	-0.008181368832175639	-0.04737259800267914	1.12324023641951e-12	1.848009123524041e-10	1.57319334921229e-09	-2.768639906875217e-10	3.40037527834236e-09	-6.650059627130838e-10	-2.578734787361549e-10
1.55	-0.08733288822677515	0.1496394013263359	0.9073220034002901	0.1593028324610628	-0.2420875830850311	-0.3279265525838878	-0.07025175199424578	0.04429138012058199	0.04429138012063257	0.04105187384632823	-0.1568268128373061	0.08073431025323302	0.2185079430182421	-0.08218339424188914	0.008024743377587896	-0.002269814736029478	0.02275045328257925	0.02716837624684129	-0.02045872979893616	0.124526633474242	-0.1122206270836944	-0.1122206270836887	0.01609305190422926	0.01168115298584272	-0.04845538714788224	0.0108023203090449	0.02142225494294934	0.06590903335378187	-0.006894187545334962	-0.04358440053229515	0.007165386950475567	-0.06605831082607737	0.01249897082029499	-29.8611207977524	28.24163232477382	1.69981030073048	3.565061326046763	-460.7874390887418	-21.1330407987697	-23.14349587184721	0.1804593169824087	-0.07440305496497168	0.006345532564366355	-0.02229017164077933	-0.03768998564057836	0.0467314499772896	-0.1339144071698518	0.1575373248715927	0.1575373248722846	-0.02649302843287266	-0.02035195545118255	-0.007804278746237038	-0.04713861024504296	9.572479166550566e-13	1.636502619698678e-10	1.633585461668123e-09	-2.89896679759735e-10	3.447185440906359e-09	-6.953393780358739e-10	-2.687028061517367e-10
1.56	-0.0881456751828975	0.1497159274195552	0.9072996215328777	0.1595292778292131	-0.2418178104986639	-0.3281287745314724	-0.06901324713444919	0.04317720284603483	0.0431772028461697	0.04121148164365026	-0.1567110264867564	0.08024943857024318	0.2186136096345882	-0.08036992595518712	0.007280657068934933	-0.002206259468407018	0.02253763678005826	0.02678482461756069	-0.01998520216384788	0.1231663003660118	-0.1106077940414278	-0.1106077940414207	0.01582851879179283	0.01147513105666215	-0.04851501487402479	0.01033121701550292	0.02142118332997837	0.06588527485289872	-0.006899789778164744	-0.0432613405604671	0.007230464967605198	-0.06611504049940922	0.01237841739618488	-29.84344132483043	28.25010845869916	1.713383504191289	3.545586078757864	-460.7783851365984	-21.13062283496784	-23.11485086992568	0.1819008655820842	-0.07447420335088452	0.006284342350783541	-0.01896932625852365	-0.03929002165037225	0.04845868234319733	-0.1378596806912319	0.1666650231950619	0.16666502319507	-0.02637773250206158	-0.0208073485973936	-0.003460082047613507	-0.04711753365935124	2.619919624856322e-12	1.369498743199335e-10	1.681920336508009e-09	-2.946663937876118e-10	3.493959123631369e-09	-7.19626144346915e-10	-2.768796094537508e-10
